# xmcd
#
# Track frame offsets:
#	300
#	3267
#	25411
#	43244
#	61216
#	83890
#	102749
#	118087
#	127690
#	155100
#	172315
#	183218
#	194654
#	212938
#
# Disc length: 2892 seconds
#
# Revision: 0
# Processed by: cddbd v1.4PL0 Copyright (c) Steve Scherf et al.
# Submitted via: EasyCDDAExtractor 5.0.0.0
#
DISCID=ce0b480e
DTITLE=THE SIRK - THE RETURN OF THE SIRK
DYEAR=2003
DGENRE=Hip-Hop
TTITLE0=INTRO
TTITLE1=THE RETURN OF THE SIRK
TTITLE2=CAPRICHOS DEL DESTINO
TTITLE3=QUIEN SOY?
TTITLE4=COMIENDO CON MC (CON GDI)
TTITLE5=EL SIRK Y EL YAKE (CON YAKE)
TTITLE6=UNA DE BORRACHOS
TTITLE7=BEATBOX E INSTRUMENTAL (DE DINO)
TTITLE8=GUARROS (CON NIKO, MAK, BOB 241 Y RAFA 205)
TTITLE9=PASAN LOS AÑOS
TTITLE10=VEN A MI VERA
TTITLE11=MAL OLOR
TTITLE12=AQUELLOS MARAVILLOSOS AÑOS (XOCK, TRIPI, YAKE, CHAN, DKT)
TTITLE13=OUTRO (CON EDU)
EXTD=
EXTT0=
EXTT1=
EXTT2=
EXTT3=
EXTT4=
EXTT5=
EXTT6=
EXTT7=
EXTT8=
EXTT9=
EXTT10=
EXTT11=
EXTT12=
EXTT13=
PLAYORDER=
